<svg preserveAspectRatio="none" width="100%" height="100%" overflow="visible" style="display: block;" viewBox="0 0 76 20" fill="none" xmlns="http://www.w3.org/2000/svg">
<g id="logo-aiga" clip-path="url(#clip0_0_31)">
<path id="Vector" d="M67.6483 0.314286L76.0037 19.0179C76.0037 19.0179 76.0037 19.025 76 19.025H70.9363C70.9363 19.025 70.9363 19.025 70.9326 19.025L69.4131 15.6929H62.31L60.7868 19.0286H55.7158L64.0711 0.314286C64.148 0.139286 64.3237 0.0285714 64.5178 0.0285714H67.198C67.392 0.0285714 67.5678 0.139286 67.6446 0.314286H67.6483ZM68.117 12.0571L65.8579 6.44286L63.5988 12.0571H68.117Z" fill="var(--fill-0, #1F2C4C)"/>
<path id="Vector_2" d="M55.108 8.81786C55.0897 8.67857 54.9652 8.57143 54.8224 8.57143H45.9654C45.5956 8.57143 45.2954 8.86428 45.2954 9.225V11.4893C45.2954 11.85 45.5956 12.1429 45.9654 12.1429H50.3591C49.2021 14.925 45.8592 16.625 42.4175 15.2C41.1543 14.675 40.1364 13.6821 39.5982 12.45C37.7895 8.29643 40.887 4.28571 44.9292 4.28571C46.5988 4.28571 48.1037 4.975 49.1728 6.07143H54.3537C52.3216 1.45 46.8258 -1.38929 41.0664 0.696429C38.4412 1.64643 36.3469 3.69643 35.3803 6.26071C32.7111 13.3321 38.0384 20 44.9292 20C50.5825 20 55.1812 15.5143 55.1812 10C55.1812 9.6 55.1556 9.20357 55.108 8.81786Z" fill="var(--fill-0, #1F2C4C)"/>
<path id="Vector_3" d="M31.7479 19.6429H26.622V1.07143H31.7479V19.6429ZM11.1854 13.5571C9.21559 12.55 8.36248 11.5429 7.5826 9.17857C7.45811 8.80357 6.85032 8.80357 6.72583 9.17857C5.94961 11.5429 5.09284 12.55 3.12299 13.5571C2.82642 13.7107 2.82642 14.0821 3.12299 14.2357C5.09284 15.2429 5.94595 16.25 6.72583 18.6143C6.85032 18.9893 7.45811 18.9893 7.5826 18.6143C8.35882 16.25 9.21559 15.2429 11.1854 14.2357C11.482 14.0821 11.482 13.7107 11.1854 13.5571ZM3.06075 17.7536C2.33213 18.1429 2.01725 18.5357 1.73166 19.45C1.68772 19.5964 1.46071 19.5964 1.41678 19.45C1.13118 18.5321 0.812642 18.1429 0.0876813 17.7536C-0.0221612 17.6964 -0.0221612 17.55 0.0876813 17.4893C0.816303 17.1 1.13118 16.7071 1.41678 15.7929C1.46071 15.6464 1.68772 15.6464 1.73166 15.7929C2.01725 16.7107 2.33579 17.1 3.06075 17.4893C3.17059 17.5464 3.17059 17.6929 3.06075 17.7536ZM11.6834 1.35714L23.4072 18.9679C23.5903 19.2464 23.3889 19.6107 23.0484 19.6107H17.9554C17.8089 19.6107 17.6771 19.5393 17.5966 19.4214L8.3991 5.60357C8.30756 5.46429 8.30756 5.28571 8.3991 5.14643L10.9657 1.35357C11.1342 1.10357 11.5113 1.10357 11.6797 1.35357L11.6834 1.35714Z" fill="url(#paint0_linear_0_31)"/>
</g>
<defs>
<linearGradient id="paint0_linear_0_31" x1="4.26902" y1="18.7464" x2="32.423" y2="4.41321" gradientUnits="userSpaceOnUse">
<stop offset="0.15" stop-color="#374EA2"/>
<stop offset="1" stop-color="#4CBB7D"/>
</linearGradient>
<clipPath id="clip0_0_31">
<rect width="76" height="20" fill="white"/>
</clipPath>
</defs>
</svg>
